# This file uses centimeters as units for non-parametric coordinates.

mtllib 90DegreeObj.mtl
g default
v -1.202854 -0.500000 -3.255413
v -1.202854 -0.500000 -3.187394
v -1.202854 0.500000 -3.255413
v -1.202854 0.500000 -3.187394
v -0.202854 0.500000 -3.255413
v -0.202854 0.500000 -3.187394
v -0.202854 -0.500000 -3.255413
v -0.202854 -0.500000 -3.187394
vt 0.375000 0.000000
vt 0.625000 0.000000
vt 0.375000 0.250000
vt 0.625000 0.250000
vt 0.375000 0.500000
vt 0.625000 0.500000
vt 0.375000 0.750000
vt 0.625000 0.750000
vt 0.375000 1.000000
vt 0.625000 1.000000
vt 0.875000 0.000000
vt 0.875000 0.250000
vt 0.125000 0.000000
vt 0.125000 0.250000
vn -1.000000 0.000000 0.000000
vn -1.000000 0.000000 0.000000
vn -1.000000 0.000000 0.000000
vn -1.000000 0.000000 0.000000
vn 0.000000 1.000000 0.000000
vn 0.000000 1.000000 0.000000
vn 0.000000 1.000000 0.000000
vn 0.000000 1.000000 0.000000
vn 1.000000 0.000000 0.000000
vn 1.000000 0.000000 0.000000
vn 1.000000 0.000000 0.000000
vn 1.000000 0.000000 0.000000
vn 0.000000 -1.000000 0.000000
vn 0.000000 -1.000000 0.000000
vn 0.000000 -1.000000 0.000000
vn 0.000000 -1.000000 0.000000
vn 0.000000 0.000000 1.000000
vn 0.000000 0.000000 1.000000
vn 0.000000 0.000000 1.000000
vn 0.000000 0.000000 1.000000
vn -0.000000 0.000000 -1.000000
vn -0.000000 0.000000 -1.000000
vn -0.000000 0.000000 -1.000000
vn -0.000000 0.000000 -1.000000
s off
g pCube1
usemtl initialShadingGroup
f 1/1/1 2/2/2 4/4/3 3/3/4
f 3/3/5 4/4/6 6/6/7 5/5/8
f 5/5/9 6/6/10 8/8/11 7/7/12
f 7/7/13 8/8/14 2/10/15 1/9/16
f 2/2/17 8/11/18 6/12/19 4/4/20
f 7/13/21 1/1/22 3/3/23 5/14/24
g bend1Set tweakSet1
v -1.202852 -0.000000 -3.219932
v -1.155201 -0.000000 -2.636426
v -1.016856 -0.000000 -2.067559
v -0.791224 -0.000000 -1.527337
v -0.483860 -0.000000 -1.029063
v -0.102334 0.000000 -0.585006
v 0.343961 0.000000 -0.206100
v 0.844036 0.000000 0.098325
v 1.385576 0.000000 0.320774
v 1.955248 0.000000 0.455768
v 2.537552 0.000000 0.500000
v -1.102853 -0.000000 -3.220226
v -1.056479 -0.000000 -2.652360
v -0.921842 -0.000000 -2.098741
v -0.702257 -0.000000 -1.572998
v -0.403132 -0.000000 -1.088080
v -0.031832 0.000000 -0.655925
v 0.402502 0.000000 -0.287174
v 0.889172 0.000000 0.009092
v 1.416198 0.000000 0.225578
v 1.970601 0.000000 0.356954
v 2.537552 0.000000 0.400000
v -1.002853 -0.000000 -3.220520
v -0.957756 -0.000000 -2.668295
v -0.826828 -0.000000 -2.129922
v -0.613291 -0.000000 -1.618659
v -0.322404 -0.000000 -1.147096
v 0.038671 -0.000000 -0.726843
v 0.461042 0.000000 -0.368248
v 0.934309 0.000000 -0.080142
v 1.446820 0.000000 0.130382
v 1.985954 0.000000 0.258139
v 2.537552 0.000000 0.300000
v -0.902854 -0.000000 -3.220815
v -0.859034 -0.000000 -2.684229
v -0.731813 -0.000000 -2.161103
v -0.524324 -0.000000 -1.664321
v -0.241675 -0.000000 -1.206112
v 0.109173 -0.000000 -0.797762
v 0.519582 -0.000000 -0.449323
v 0.979446 0.000000 -0.169376
v 1.477441 0.000000 0.035185
v 2.001306 0.000000 0.159325
v 2.537552 0.000000 0.200000
v -0.802854 -0.000000 -3.221109
v -0.760312 -0.000000 -2.700163
v -0.636799 -0.000000 -2.192285
v -0.435357 -0.000000 -1.709982
v -0.160947 -0.000000 -1.265129
v 0.179675 -0.000000 -0.868680
v 0.578122 -0.000000 -0.530397
v 1.024582 -0.000000 -0.258610
v 1.508063 0.000000 -0.060011
v 2.016659 0.000000 0.060510
v 2.537552 0.000000 0.100000
v -0.702854 -0.000000 -3.221403
v -0.661589 -0.000000 -2.716097
v -0.541785 -0.000000 -2.223466
v -0.346391 -0.000000 -1.755643
v -0.080219 -0.000000 -1.324145
v 0.250177 -0.000000 -0.939599
v 0.636662 -0.000000 -0.611471
v 1.069719 -0.000000 -0.347844
v 1.538685 -0.000000 -0.155207
v 2.032012 -0.000000 -0.038304
v 2.537552 0.000000 0.000000
v -0.602855 -0.000000 -3.221698
v -0.562867 -0.000000 -2.732031
v -0.446770 -0.000000 -2.254648
v -0.257424 -0.000000 -1.801304
v 0.000510 -0.000000 -1.383162
v 0.320680 -0.000000 -1.010517
v 0.695202 -0.000000 -0.692546
v 1.114856 -0.000000 -0.437078
v 1.569306 -0.000000 -0.250403
v 2.047365 -0.000000 -0.137119
v 2.537552 0.000000 -0.100000
v -0.502855 -0.000000 -3.221992
v -0.464144 -0.000000 -2.747965
v -0.351756 -0.000000 -2.285829
v -0.168457 -0.000000 -1.846965
v 0.081238 -0.000000 -1.442178
v 0.391182 -0.000000 -1.081435
v 0.753743 -0.000000 -0.773620
v 1.159992 -0.000000 -0.526312
v 1.599928 -0.000000 -0.345599
v 2.062717 -0.000000 -0.235933
v 2.537552 0.000000 -0.200000
v -0.402856 -0.000000 -3.222286
v -0.365422 -0.000000 -2.763899
v -0.256742 -0.000000 -2.317011
v -0.079491 -0.000000 -1.892626
v 0.161966 -0.000000 -1.501194
v 0.461684 -0.000000 -1.152354
v 0.812283 -0.000000 -0.854695
v 1.205129 -0.000000 -0.615546
v 1.630550 -0.000000 -0.440796
v 2.078070 -0.000000 -0.334748
v 2.537552 0.000000 -0.300000
v -0.302856 -0.000000 -3.222581
v -0.266700 -0.000000 -2.779833
v -0.161727 -0.000000 -2.348192
v 0.009476 -0.000000 -1.938287
v 0.242695 -0.000000 -1.560211
v 0.532187 -0.000000 -1.223272
v 0.870823 -0.000000 -0.935769
v 1.250266 -0.000000 -0.704780
v 1.661171 -0.000000 -0.535992
v 2.093423 -0.000000 -0.433562
v 2.537552 0.000000 -0.400000
v -0.202857 -0.000000 -3.222875
v -0.167977 -0.000000 -2.795767
v -0.066713 -0.000000 -2.379374
v 0.098443 -0.000000 -1.983948
v 0.323423 -0.000000 -1.619227
v 0.602689 -0.000000 -1.294191
v 0.929363 -0.000000 -1.016843
v 1.295402 -0.000000 -0.794013
v 1.691793 -0.000000 -0.631188
v 2.108775 -0.000000 -0.532376
v 2.537552 0.000000 -0.500000
vt 0.000000 0.000000
vt 0.100000 0.000000
vt 0.200000 0.000000
vt 0.300000 0.000000
vt 0.400000 0.000000
vt 0.500000 0.000000
vt 0.600000 0.000000
vt 0.700000 0.000000
vt 0.800000 0.000000
vt 0.900000 0.000000
vt 1.000000 0.000000
vt 0.000000 0.100000
vt 0.100000 0.100000
vt 0.200000 0.100000
vt 0.300000 0.100000
vt 0.400000 0.100000
vt 0.500000 0.100000
vt 0.600000 0.100000
vt 0.700000 0.100000
vt 0.800000 0.100000
vt 0.900000 0.100000
vt 1.000000 0.100000
vt 0.000000 0.200000
vt 0.100000 0.200000
vt 0.200000 0.200000
vt 0.300000 0.200000
vt 0.400000 0.200000
vt 0.500000 0.200000
vt 0.600000 0.200000
vt 0.700000 0.200000
vt 0.800000 0.200000
vt 0.900000 0.200000
vt 1.000000 0.200000
vt 0.000000 0.300000
vt 0.100000 0.300000
vt 0.200000 0.300000
vt 0.300000 0.300000
vt 0.400000 0.300000
vt 0.500000 0.300000
vt 0.600000 0.300000
vt 0.700000 0.300000
vt 0.800000 0.300000
vt 0.900000 0.300000
vt 1.000000 0.300000
vt 0.000000 0.400000
vt 0.100000 0.400000
vt 0.200000 0.400000
vt 0.300000 0.400000
vt 0.400000 0.400000
vt 0.500000 0.400000
vt 0.600000 0.400000
vt 0.700000 0.400000
vt 0.800000 0.400000
vt 0.900000 0.400000
vt 1.000000 0.400000
vt 0.000000 0.500000
vt 0.100000 0.500000
vt 0.200000 0.500000
vt 0.300000 0.500000
vt 0.400000 0.500000
vt 0.500000 0.500000
vt 0.600000 0.500000
vt 0.700000 0.500000
vt 0.800000 0.500000
vt 0.900000 0.500000
vt 1.000000 0.500000
vt 0.000000 0.600000
vt 0.100000 0.600000
vt 0.200000 0.600000
vt 0.300000 0.600000
vt 0.400000 0.600000
vt 0.500000 0.600000
vt 0.600000 0.600000
vt 0.700000 0.600000
vt 0.800000 0.600000
vt 0.900000 0.600000
vt 1.000000 0.600000
vt 0.000000 0.700000
vt 0.100000 0.700000
vt 0.200000 0.700000
vt 0.300000 0.700000
vt 0.400000 0.700000
vt 0.500000 0.700000
vt 0.600000 0.700000
vt 0.700000 0.700000
vt 0.800000 0.700000
vt 0.900000 0.700000
vt 1.000000 0.700000
vt 0.000000 0.800000
vt 0.100000 0.800000
vt 0.200000 0.800000
vt 0.300000 0.800000
vt 0.400000 0.800000
vt 0.500000 0.800000
vt 0.600000 0.800000
vt 0.700000 0.800000
vt 0.800000 0.800000
vt 0.900000 0.800000
vt 1.000000 0.800000
vt 0.000000 0.900000
vt 0.100000 0.900000
vt 0.200000 0.900000
vt 0.300000 0.900000
vt 0.400000 0.900000
vt 0.500000 0.900000
vt 0.600000 0.900000
vt 0.700000 0.900000
vt 0.800000 0.900000
vt 0.900000 0.900000
vt 1.000000 0.900000
vt 0.000000 1.000000
vt 0.100000 1.000000
vt 0.200000 1.000000
vt 0.300000 1.000000
vt 0.400000 1.000000
vt 0.500000 1.000000
vt 0.600000 1.000000
vt 0.700000 1.000000
vt 0.800000 1.000000
vt 0.900000 1.000000
vt 1.000000 1.000000
vn 0.000000 1.000000 -0.000000
vn 0.000000 1.000000 -0.000000
vn 0.000000 1.000000 -0.000000
vn 0.000000 1.000000 -0.000000
vn 0.000000 1.000000 -0.000000
vn 0.000000 1.000000 -0.000000
vn 0.000000 1.000000 -0.000000
vn 0.000000 1.000000 -0.000000
vn 0.000000 1.000000 -0.000000
vn 0.000000 1.000000 -0.000000
vn 0.000000 1.000000 -0.000000
vn 0.000000 1.000000 -0.000000
vn 0.000000 1.000000 -0.000000
vn 0.000000 1.000000 -0.000000
vn 0.000000 1.000000 -0.000000
vn 0.000000 1.000000 -0.000000
vn 0.000000 1.000000 -0.000000
vn 0.000000 1.000000 -0.000000
vn 0.000000 1.000000 -0.000000
vn 0.000000 1.000000 -0.000000
vn 0.000000 1.000000 -0.000000
vn 0.000000 1.000000 -0.000000
vn 0.000000 1.000000 -0.000000
vn 0.000000 1.000000 -0.000000
vn 0.000000 1.000000 -0.000000
vn 0.000000 1.000000 -0.000000
vn 0.000000 1.000000 -0.000000
vn 0.000000 1.000000 -0.000000
vn 0.000000 1.000000 -0.000000
vn 0.000000 1.000000 -0.000000
vn 0.000000 1.000000 -0.000000
vn 0.000000 1.000000 -0.000000
vn 0.000000 1.000000 -0.000000
vn 0.000000 1.000000 -0.000000
vn 0.000000 1.000000 -0.000000
vn 0.000000 1.000000 -0.000000
vn 0.000000 1.000000 -0.000000
vn 0.000000 1.000000 -0.000000
vn 0.000000 1.000000 -0.000000
vn 0.000000 1.000000 -0.000000
vn 0.000000 1.000000 -0.000000
vn 0.000000 1.000000 -0.000000
vn 0.000000 1.000000 -0.000000
vn 0.000000 1.000000 -0.000000
vn 0.000000 1.000000 -0.000000
vn 0.000000 1.000000 -0.000000
vn 0.000000 1.000000 -0.000000
vn 0.000000 1.000000 -0.000000
vn 0.000000 1.000000 -0.000000
vn 0.000000 1.000000 -0.000000
vn 0.000000 1.000000 -0.000000
vn 0.000000 1.000000 -0.000000
vn 0.000000 1.000000 -0.000000
vn 0.000000 1.000000 -0.000000
vn 0.000000 1.000000 -0.000000
vn 0.000000 1.000000 -0.000000
vn 0.000000 1.000000 -0.000000
vn 0.000000 1.000000 -0.000000
vn 0.000000 1.000000 -0.000000
vn 0.000000 1.000000 -0.000000
vn 0.000000 1.000000 -0.000000
vn 0.000000 1.000000 -0.000000
vn 0.000000 1.000000 -0.000000
vn 0.000000 1.000000 -0.000000
vn 0.000000 1.000000 -0.000000
vn 0.000000 1.000000 -0.000000
vn 0.000000 1.000000 -0.000000
vn 0.000000 1.000000 -0.000000
vn 0.000000 1.000000 -0.000000
vn 0.000000 1.000000 -0.000000
vn 0.000000 1.000000 -0.000000
vn 0.000000 1.000000 -0.000000
vn 0.000000 1.000000 -0.000000
vn 0.000000 1.000000 -0.000000
vn 0.000000 1.000000 -0.000000
vn -0.000000 1.000000 -0.000000
vn -0.000000 1.000000 -0.000000
vn 0.000000 1.000000 -0.000000
vn 0.000000 1.000000 -0.000000
vn 0.000000 1.000000 -0.000000
vn 0.000000 1.000000 -0.000000
vn 0.000000 1.000000 -0.000000
vn 0.000000 1.000000 -0.000000
vn 0.000000 1.000000 -0.000000
vn 0.000000 1.000000 -0.000000
vn -0.000000 1.000000 -0.000000
vn -0.000000 1.000000 -0.000000
vn -0.000000 1.000000 -0.000000
vn 0.000000 1.000000 -0.000000
vn 0.000000 1.000000 -0.000000
vn 0.000000 1.000000 -0.000000
vn 0.000000 1.000000 -0.000000
vn 0.000000 1.000000 -0.000000
vn 0.000000 1.000000 -0.000000
vn 0.000000 1.000000 -0.000000
vn 0.000000 1.000000 -0.000000
vn -0.000000 1.000000 -0.000000
vn -0.000000 1.000000 -0.000000
vn -0.000000 1.000000 -0.000000
vn 0.000000 1.000000 -0.000000
vn 0.000000 1.000000 -0.000000
vn 0.000000 1.000000 -0.000000
vn 0.000000 1.000000 -0.000000
vn 0.000000 1.000000 -0.000000
vn 0.000000 1.000000 -0.000000
vn 0.000000 1.000000 -0.000000
vn -0.000000 1.000000 -0.000000
vn -0.000000 1.000000 -0.000000
vn -0.000000 1.000000 -0.000000
vn -0.000000 1.000000 -0.000000
vn 0.000000 1.000000 -0.000000
vn 0.000000 1.000000 -0.000000
vn 0.000000 1.000000 -0.000000
vn 0.000000 1.000000 -0.000000
vn 0.000000 1.000000 -0.000000
vn 0.000000 1.000000 -0.000000
vn 0.000000 1.000000 -0.000000
vn -0.000000 1.000000 -0.000000
vn -0.000000 1.000000 -0.000000
vn -0.000000 1.000000 -0.000000
vn -0.000000 1.000000 -0.000000
s 1
g pPlane1
usemtl initialShadingGroup
f 9/15/25 10/16/26 21/27/27 20/26/28
f 10/16/26 11/17/29 22/28/30 21/27/27
f 11/17/29 12/18/31 23/29/32 22/28/30
f 12/18/31 13/19/33 24/30/34 23/29/32
f 13/19/33 14/20/35 25/31/36 24/30/34
f 14/20/35 15/21/37 26/32/38 25/31/36
f 15/21/37 16/22/39 27/33/40 26/32/38
f 16/22/39 17/23/41 28/34/42 27/33/40
f 17/23/41 18/24/43 29/35/44 28/34/42
f 18/24/43 19/25/45 30/36/46 29/35/44
f 20/26/28 21/27/27 32/38/47 31/37/48
f 21/27/27 22/28/30 33/39/49 32/38/47
f 22/28/30 23/29/32 34/40/50 33/39/49
f 23/29/32 24/30/34 35/41/51 34/40/50
f 24/30/34 25/31/36 36/42/52 35/41/51
f 25/31/36 26/32/38 37/43/53 36/42/52
f 26/32/38 27/33/40 38/44/54 37/43/53
f 27/33/40 28/34/42 39/45/55 38/44/54
f 28/34/42 29/35/44 40/46/56 39/45/55
f 29/35/44 30/36/46 41/47/57 40/46/56
f 31/37/48 32/38/47 43/49/58 42/48/59
f 32/38/47 33/39/49 44/50/60 43/49/58
f 33/39/49 34/40/50 45/51/61 44/50/60
f 34/40/50 35/41/51 46/52/62 45/51/61
f 35/41/51 36/42/52 47/53/63 46/52/62
f 36/42/52 37/43/53 48/54/64 47/53/63
f 37/43/53 38/44/54 49/55/65 48/54/64
f 38/44/54 39/45/55 50/56/66 49/55/65
f 39/45/55 40/46/56 51/57/67 50/56/66
f 40/46/56 41/47/57 52/58/68 51/57/67
f 42/48/59 43/49/58 54/60/69 53/59/70
f 43/49/58 44/50/60 55/61/71 54/60/69
f 44/50/60 45/51/61 56/62/72 55/61/71
f 45/51/61 46/52/62 57/63/73 56/62/72
f 46/52/62 47/53/63 58/64/74 57/63/73
f 47/53/63 48/54/64 59/65/75 58/64/74
f 48/54/64 49/55/65 60/66/76 59/65/75
f 49/55/65 50/56/66 61/67/77 60/66/76
f 50/56/66 51/57/67 62/68/78 61/67/77
f 51/57/67 52/58/68 63/69/79 62/68/78
f 53/59/70 54/60/69 65/71/80 64/70/81
f 54/60/69 55/61/71 66/72/82 65/71/80
f 55/61/71 56/62/72 67/73/83 66/72/82
f 56/62/72 57/63/73 68/74/84 67/73/83
f 57/63/73 58/64/74 69/75/85 68/74/84
f 58/64/74 59/65/75 70/76/86 69/75/85
f 59/65/75 60/66/76 71/77/87 70/76/86
f 60/66/76 61/67/77 72/78/88 71/77/87
f 61/67/77 62/68/78 73/79/89 72/78/88
f 62/68/78 63/69/79 74/80/90 73/79/89
f 64/70/81 65/71/80 76/82/91 75/81/92
f 65/71/80 66/72/82 77/83/93 76/82/91
f 66/72/82 67/73/83 78/84/94 77/83/93
f 67/73/83 68/74/84 79/85/95 78/84/94
f 68/74/84 69/75/85 80/86/96 79/85/95
f 69/75/85 70/76/86 81/87/97 80/86/96
f 70/76/86 71/77/87 82/88/98 81/87/97
f 71/77/87 72/78/88 83/89/99 82/88/98
f 72/78/88 73/79/89 84/90/100 83/89/99
f 73/79/89 74/80/90 85/91/101 84/90/100
f 75/81/92 76/82/91 87/93/102 86/92/103
f 76/82/91 77/83/93 88/94/104 87/93/102
f 77/83/93 78/84/94 89/95/105 88/94/104
f 78/84/94 79/85/95 90/96/106 89/95/105
f 79/85/95 80/86/96 91/97/107 90/96/106
f 80/86/96 81/87/97 92/98/108 91/97/107
f 81/87/97 82/88/98 93/99/109 92/98/108
f 82/88/98 83/89/99 94/100/110 93/99/109
f 83/89/99 84/90/100 95/101/111 94/100/110
f 84/90/100 85/91/101 96/102/112 95/101/111
f 86/92/103 87/93/102 98/104/113 97/103/114
f 87/93/102 88/94/104 99/105/115 98/104/113
f 88/94/104 89/95/105 100/106/116 99/105/115
f 89/95/105 90/96/106 101/107/117 100/106/116
f 90/96/106 91/97/107 102/108/118 101/107/117
f 91/97/107 92/98/108 103/109/119 102/108/118
f 92/98/108 93/99/109 104/110/120 103/109/119
f 93/99/109 94/100/110 105/111/121 104/110/120
f 94/100/110 95/101/111 106/112/122 105/111/121
f 95/101/111 96/102/112 107/113/123 106/112/122
f 97/103/114 98/104/113 109/115/124 108/114/125
f 98/104/113 99/105/115 110/116/126 109/115/124
f 99/105/115 100/106/116 111/117/127 110/116/126
f 100/106/116 101/107/117 112/118/128 111/117/127
f 101/107/117 102/108/118 113/119/129 112/118/128
f 102/108/118 103/109/119 114/120/130 113/119/129
f 103/109/119 104/110/120 115/121/131 114/120/130
f 104/110/120 105/111/121 116/122/132 115/121/131
f 105/111/121 106/112/122 117/123/133 116/122/132
f 106/112/122 107/113/123 118/124/134 117/123/133
f 108/114/125 109/115/124 120/126/135 119/125/136
f 109/115/124 110/116/126 121/127/137 120/126/135
f 110/116/126 111/117/127 122/128/138 121/127/137
f 111/117/127 112/118/128 123/129/139 122/128/138
f 112/118/128 113/119/129 124/130/140 123/129/139
f 113/119/129 114/120/130 125/131/141 124/130/140
f 114/120/130 115/121/131 126/132/142 125/131/141
f 115/121/131 116/122/132 127/133/143 126/132/142
f 116/122/132 117/123/133 128/134/144 127/133/143
f 117/123/133 118/124/134 129/135/145 128/134/144
