# This file uses centimeters as units for non-parametric coordinates.

mtllib package_4.mtl
g default
v 1.678823 -0.027616 1.660324
v 1.414311 0.308435 1.437758
v -2.267656 -0.027616 1.660324
v -2.003144 0.308435 1.437758
v -2.267656 -0.027616 -1.660324
v -2.003144 0.308435 -1.437758
v 1.678823 -0.027616 -1.660324
v 1.414311 0.308435 -1.437758
v -2.267656 -0.027616 0.000000
v -2.003144 0.308435 0.000000
v 1.414311 0.308435 0.000000
v 1.678823 -0.027616 0.000000
v -0.294417 -0.027616 1.660324
v -0.294417 0.308435 1.437758
v -0.294417 0.308435 0.000000
v -0.294417 0.308435 -1.437758
v -0.294417 -0.027616 -1.660324
v -0.294417 -0.027616 0.000000
v 2.006491 0.179121 1.936030
v 2.006491 0.179121 0.000000
v 2.006491 0.179121 -1.936030
v -0.294417 0.179121 -1.936030
v -2.595324 0.179121 -1.936030
v -2.595324 0.179121 0.000000
v -2.595324 0.179121 1.936030
v -0.294417 0.179121 1.936030
vt 0.375000 0.000000
vt 0.625000 0.000000
vt 0.375000 0.250000
vt 0.625000 0.250000
vt 0.375000 0.500000
vt 0.625000 0.500000
vt 0.375000 0.750000
vt 0.625000 0.750000
vt 0.375000 1.000000
vt 0.625000 1.000000
vt 0.875000 0.000000
vt 0.875000 0.250000
vt 0.125000 0.000000
vt 0.125000 0.250000
vt 0.250000 0.250000
vt 0.375000 0.375000
vt 0.625000 0.375000
vt 0.750000 0.250000
vt 0.625000 0.875000
vt 0.750000 0.000000
vt 0.250000 0.000000
vt 0.375000 0.875000
vt 0.375000 0.125000
vt 0.625000 0.125000
vt 0.750000 0.125000
vt 0.625000 0.625000
vt 0.875000 0.125000
vt 0.125000 0.125000
vt 0.375000 0.625000
vt 0.250000 0.125000
vt 0.500000 0.000000
vt 0.500000 1.000000
vt 0.500000 0.875000
vt 0.500000 0.750000
vt 0.500000 0.625000
vt 0.500000 0.500000
vt 0.500000 0.375000
vt 0.500000 0.250000
vt 0.500000 0.125000
vn -0.000000 0.337762 0.941231
vn -0.000000 0.504594 0.863357
vn -0.000000 0.967934 0.251203
vn -0.000000 0.967934 0.251203
vn -0.919839 0.392296 0.000000
vn -0.821308 0.570486 0.000000
vn -0.213342 0.976978 0.000000
vn -0.213342 0.976978 0.000000
vn -0.000000 0.504594 -0.863357
vn -0.000000 0.337762 -0.941232
vn -0.000000 0.967934 -0.251203
vn -0.000000 0.967934 -0.251203
vn 0.821308 0.570485 0.000000
vn 0.919839 0.392296 0.000000
vn 0.213342 0.976978 0.000000
vn 0.213342 0.976978 0.000000
vn -0.000000 1.000000 0.000000
vn -0.000000 1.000000 0.000000
vn -0.000000 1.000000 0.000000
vn -0.000000 1.000000 0.000000
vn 0.000000 -1.000000 0.000000
vn 0.000000 -1.000000 0.000000
vn 0.000000 -1.000000 0.000000
vn 0.000000 -1.000000 0.000000
vn -0.919839 0.392296 0.000000
vn -0.213342 0.976977 0.000000
vn -0.000000 1.000000 0.000000
vn -0.000000 1.000000 0.000000
vn 0.919839 0.392295 0.000000
vn 0.213342 0.976977 0.000000
vn 0.000000 -1.000000 0.000000
vn 0.000000 -1.000000 0.000000
vn -0.000000 0.337763 0.941231
vn -0.000000 0.967934 0.251203
vn -0.000000 1.000000 0.000000
vn -0.000000 1.000000 0.000000
vn -0.000000 1.000000 0.000000
vn -0.000000 0.337762 -0.941231
vn -0.000000 0.967934 -0.251203
vn 0.000000 -1.000000 0.000000
vn 0.000000 -1.000000 0.000000
vn 0.000000 -1.000000 0.000000
vn 0.533603 -0.845735 0.000000
vn 0.533603 -0.845735 0.000000
vn 0.533603 -0.845735 0.000000
vn 0.000000 -0.800060 -0.599920
vn 0.000000 -0.800060 -0.599920
vn 0.000000 -0.800060 -0.599920
vn -0.533603 -0.845735 0.000000
vn -0.533603 -0.845735 0.000000
vn -0.533603 -0.845735 0.000000
vn 0.000000 -0.800060 0.599920
vn 0.000000 -0.800060 0.599920
vn 0.000000 -0.800060 0.599920
s 1
g softshell_package6
usemtl initialShadingGroup
f 25/38/1 26/39/2 14/24/3 4/4/4
s 2
f 23/36/5 24/37/6 10/17/7 6/6/8
s 3
f 22/35/9 23/36/10 6/6/11 16/26/12
s 4
f 20/33/13 21/34/14 8/8/15 11/19/16
s 5
f 10/18/17 15/25/18 16/27/19 6/12/20
s 6
f 17/28/21 18/30/22 9/15/23 5/14/24
s 2
f 24/37/6 25/38/25 4/4/26 10/17/7
s 5
f 14/24/27 15/25/18 10/18/17 4/4/28
s 4
f 19/32/29 20/33/13 11/19/16 2/10/30
s 6
f 9/15/23 18/30/22 13/23/31 3/3/32
s 1
f 26/39/2 19/31/33 2/2/34 14/24/3
s 5
f 2/2/35 11/20/36 15/25/18 14/24/27
f 16/27/19 15/25/18 11/20/36 8/11/37
s 3
f 21/34/38 22/35/9 16/26/12 8/8/39
s 6
f 7/13/40 12/21/41 18/30/22 17/28/21
f 13/23/31 18/30/22 12/21/41 1/1/42
s 4
f 12/22/43 20/33/13 19/32/29 1/9/44
f 7/7/45 21/34/14 20/33/13 12/22/43
s 3
f 17/29/46 22/35/9 21/34/38 7/7/47
f 5/5/48 23/36/10 22/35/9 17/29/46
s 2
f 9/16/49 24/37/6 23/36/5 5/5/50
f 3/3/51 25/38/25 24/37/6 9/16/49
s 1
f 13/23/52 26/39/2 25/38/1 3/3/53
f 1/1/54 19/31/33 26/39/2 13/23/52
